<svg width="64" height="64" viewBox="0 0 64 64" fill="none" xmlns="http://www.w3.org/2000/svg">
<rect width="64" height="64" rx="32" fill="#DED5FD"/>
<path d="M37.443 16C33.1936 15.9952 29.1253 17.7554 26.1743 20.8756C30.6167 22.7091 33.5245 27.1099 33.5245 31.9998C33.5245 36.8897 30.6167 41.2905 26.1743 43.1239C31.1305 48.3524 38.9194 49.511 45.1321 45.9438C51.3447 42.3766 54.4171 34.9818 52.6101 27.9451C50.8031 20.9084 44.5716 16.0014 37.443 16.0016V16ZM26.1743 20.8756C21.262 18.8462 15.6262 20.4202 12.4112 24.7194C9.19625 29.0186 9.19625 34.981 12.4112 39.2802C15.6262 43.5794 21.262 45.1534 26.1743 43.1239C20.2941 36.9216 20.2941 27.078 26.1743 20.8756Z" fill="#6333FF"/>
</svg>
